<svg xmlns="http://www.w3.org/2000/svg" className="text-brand bg-brand" viewBox="0 0 512 512"><g id="Blockchain"><path className="text-brand bg-brand" d="M473.8,336.951c-.0258-.0151-.0559-.0194-.0816-.0344L411.7961,301.173V210.8119L473.7914,175.01a13.1951,13.1951,0,0,0,6.6-11.43l.0086-79.2a13.1949,13.1949,0,0,0-6.6-11.43c-.0258-.0151-.0559-.0194-.0816-.0344L405.2047,33.3682a13.2158,13.2158,0,0,0-13.2,0L323.4008,72.96a13.1947,13.1947,0,0,0-6.6,11.43c0,.0451.0172.0859.0172.1289l.0021,15.6836H195.1885l.0021-15.8125h0v-.0086a13.1947,13.1947,0,0,0-6.6-11.43c-.0172-.0086-.0343-.0129-.0515-.0215L119.9953,33.3682a13.2158,13.2158,0,0,0-13.2,0L38.2,72.96a13.1949,13.1949,0,0,0-6.6,11.43c0,.0451.0172.0859.0172.1289v79.0711a13.1948,13.1948,0,0,0,6.6,11.43l61.9867,35.7973V301.173L38.2,336.96a13.1949,13.1949,0,0,0-6.6,11.43c0,.0451.0172.0859.0172.1289v79.0711a13.1948,13.1948,0,0,0,6.6,11.43l68.5867,39.6086a13.1875,13.1875,0,0,0,13.2,0c.0172-.0086.0279-.0257.0451-.0343L188.582,439.01a13.1949,13.1949,0,0,0,6.6-11.43l.0022-15.7782h121.64l.0022,15.7868a13.1946,13.1946,0,0,0,6.6,11.43l68.5867,39.6086a13.1875,13.1875,0,0,0,13.2,0c.0258-.015.0451-.0386.0709-.0558L473.7914,439.01a13.1951,13.1951,0,0,0,6.6-11.43l.0086-79.2A13.1949,13.1949,0,0,0,473.8,336.951ZM352.2586,112.4758l33.1461,19.1361v48.7137l-42.1781-24.359-.0086-48.7094Zm46.3461,211.5588,42.1867,24.3547-2.7285,1.5748-39.4582,22.78-27.3561-15.791-14.8371-8.5658ZM453.9914,155.958l-42.18,24.359-.0064-48.7051L454,107.2486ZM398.6047,60.0346l42.1867,24.3547-2.7285,1.5748-39.4582,22.78-27.3561-15.791-14.8371-8.5658ZM135.2836,360.1111l-21.88,12.6328-27.356-15.791-14.8372-8.5658,42.1846-24.3525,42.191,24.3525Zm-8.68-228.4992,25.9553-14.99,16.2314-9.3715-.0086,48.7072-42.1781,24.3633ZM113.3953,60.0346l42.191,24.3525-20.3027,11.724-21.88,12.6328-27.356-15.791L71.2107,84.3871ZM58.0172,107.2572,90.826,126.1957l9.3779,5.4162V180.33L58.0172,155.9666Zm0,264L90.826,390.1957l9.3779,5.4162V444.33L58.0172,419.9666Zm68.5867,73.0641V395.6119l25.9553-14.99,16.2314-9.3715-.0086,48.7072Zm68.5824-58.9188.0043-37.0132h0v-.0086a13.1947,13.1947,0,0,0-6.6-11.43c-.0172-.0086-.0343-.0129-.0515-.0215l-61.9352-35.7457V210.8076L188.582,175.01a13.1949,13.1949,0,0,0,6.6-11.43l.0043-36.9789h121.636l.0043,36.9875a13.1946,13.1946,0,0,0,6.6,11.43l61.9695,35.7866v90.3761L323.4008,336.96a13.1947,13.1947,0,0,0-6.6,11.43c0,.0451.0172.0859.0172.1289l.0043,36.8843Zm148.036,13.2387c0-.0129.0043-.0258.0043-.0387s-.0043-.0257-.0043-.0386l-.0043-27.3067,9.0406,5.2186,33.1461,19.1361v48.7137l-42.1781-24.359ZM453.9914,419.958l-42.18,24.359-.0064-48.7051L454,371.2486Z"/></g></svg>
