<svg width="91" height="91" viewBox="0 0 91 91" fill="none" xmlns="http://www.w3.org/2000/svg">
<path d="M81.4609 37.6282L89.3432 30.6437M77.0989 34.0705L87.2796 22.0611" stroke="#2B3B49" stroke-width="2" stroke-linecap="round" stroke-linejoin="round"/>
<path fill-rule="evenodd" clip-rule="evenodd" d="M27.0583 35.1348C20.4321 35.1348 15.0605 40.5063 15.0605 47.1325C15.0605 53.7586 20.4321 59.1302 27.0582 59.1302H68.5503C75.1765 59.1302 80.548 53.7586 80.548 47.1325C80.548 40.5063 75.1765 35.1348 68.5504 35.1348H27.0583ZM50.0287 47.2335L58.3352 43.5784L58.3356 43.5779C59.3807 43.1181 60.5975 43.6 61.0532 44.6544C61.509 45.7087 61.0314 46.9362 59.9862 47.3961L48.79 52.3231C48.5295 52.4378 48.2482 52.4969 47.964 52.4969C46.8238 52.4968 45.8996 51.5642 45.8997 50.414V47.5948L37.593 51.2502C36.5502 51.7063 35.3381 51.2262 34.8813 50.1762C34.4232 49.1229 34.8982 47.8943 35.9423 47.4322L47.1384 42.5051C47.399 42.3904 47.6803 42.3313 47.9645 42.3313C49.1047 42.3315 50.0289 43.2641 50.0287 44.4144V47.2335Z" fill="#386FFA"/>
<path d="M61.1233 52.2686L65.7786 66.7991L74.0586 58.1505L61.1233 52.2686Z" fill="#F3F7FF"/>
<path d="M60.9324 52.2452L69.9601 79.3542L73.3335 65.9099" stroke="#2B3B49" stroke-width="2" stroke-linecap="round" stroke-linejoin="round"/>
<path d="M60.9325 52.2452L87.0411 63.8529L73.3335 65.9099" stroke="#2B3B49" stroke-width="2" stroke-linecap="round" stroke-linejoin="round"/>
<circle cx="12.8286" cy="33.7125" r="10.8286" stroke="#386FFA" stroke-width="2" stroke-linecap="round" stroke-linejoin="round"/>
<circle r="5.12935" transform="matrix(1 0 0 -1 12.8284 33.7126)" stroke="#2B3B49" stroke-width="2" stroke-linecap="round" stroke-linejoin="round"/>
</svg>
