<svg width="91" height="91" viewBox="0 0 91 91" fill="none" xmlns="http://www.w3.org/2000/svg">
<path d="M32.3118 25.5539L21.1559 9" stroke="#001F5C" stroke-width="2" stroke-linecap="round" stroke-linejoin="round"/>
<path d="M67.9386 34.1907L81.6135 26.6335" stroke="#001F5C" stroke-width="2" stroke-linecap="round" stroke-linejoin="round"/>
<path d="M64.34 61.9004L76.9353 73.4161" stroke="#001F5C" stroke-width="2" stroke-linecap="round" stroke-linejoin="round"/>
<path d="M32.3118 62.2603C23.3175 71.3952 23.6727 72.1984 14.6783 81.3333" stroke="#001F5C" stroke-width="2" stroke-linecap="round" stroke-linejoin="round"/>
<path d="M20.796 45.7064H10" stroke="#001F5C" stroke-width="2" stroke-linecap="round" stroke-linejoin="round"/>
<path fill-rule="evenodd" clip-rule="evenodd" d="M38.791 61.5886V68.558C38.791 73.1284 42.496 76.8334 47.0664 76.8334C51.6367 76.8334 55.3417 73.1284 55.3417 68.558V61.3805C54.7647 61.724 54.1651 62.0333 53.5456 62.3059V68.558C53.5456 72.1364 50.6447 75.0372 47.0664 75.0372C43.488 75.0372 40.5872 72.1364 40.5872 68.558V62.4591C39.9687 62.2044 39.3691 61.9134 38.791 61.5886Z" fill="#386FFA"/>
<circle cx="46.8864" cy="44.8068" r="18.893" fill="#386FFA"/>
<path d="M35.4116 45.8719C35.0311 45.4716 34.3982 45.4554 33.9978 45.8359C33.5975 46.2163 33.5814 46.8493 33.9618 47.2496L35.4116 45.8719ZM51.3668 41.4805L52.1806 40.8994L51.3668 41.4805ZM49.7732 46.3434L48.9278 46.8775L49.7732 46.3434ZM61.214 46.0815C61.3714 45.5521 61.0698 44.9954 60.5404 44.838C60.011 44.6806 59.4543 44.9822 59.2969 45.5116L61.214 46.0815ZM33.9618 47.2496C36.5156 49.9368 39.3238 50.8906 41.6897 49.9289C44.0166 48.9831 45.386 46.3893 45.5484 43.1715L43.551 43.0707C43.4094 45.8745 42.2593 47.5385 40.9366 48.0761C39.653 48.5978 37.6818 48.2607 35.4116 45.8719L33.9618 47.2496ZM45.5484 43.1715C45.6317 41.5218 45.3033 40.2002 44.639 39.284C43.9593 38.3466 42.9443 37.8771 41.8953 38.0153C39.7653 38.2959 38.5014 40.7196 39.0649 43.7406L41.031 43.3738C40.5627 40.8633 41.7017 40.0581 42.1565 39.9982C42.3999 39.9661 42.7229 40.0484 43.0199 40.4581C43.3324 40.889 43.6197 41.7097 43.551 43.0707L45.5484 43.1715ZM39.0649 43.7406C39.6462 46.8569 41.6156 48.9173 43.7915 49.9654C45.9038 50.9829 48.401 51.1228 50.061 50.1044L49.0152 48.3996C48.1299 48.9427 46.398 49.001 44.6595 48.1636C42.9846 47.3568 41.4815 45.7891 41.031 43.3738L39.0649 43.7406ZM50.061 50.1044C53.024 48.2867 54.3349 43.9166 52.1806 40.8994L50.5529 42.0615C51.9334 43.995 51.1428 47.0944 49.0152 48.3996L50.061 50.1044ZM52.1806 40.8994C51.6292 40.1271 50.8626 39.5675 49.9556 39.6052C49.0351 39.6434 48.3789 40.2777 48.0285 40.9943C47.33 42.4227 47.5162 44.643 48.9278 46.8775L50.6187 45.8094C49.4423 43.9472 49.5283 42.4799 49.8252 41.8729C49.9724 41.5718 50.0878 41.6014 50.0386 41.6035C50.003 41.605 50.2075 41.5777 50.5529 42.0615L52.1806 40.8994ZM48.9278 46.8775C50.3237 49.0871 52.8838 50.397 55.3291 50.4322C57.8446 50.4683 60.3042 49.1421 61.214 46.0815L59.2969 45.5116C58.6751 47.6033 57.0983 48.4574 55.3579 48.4324C53.5473 48.4064 51.6321 47.4136 50.6187 45.8094L48.9278 46.8775Z" fill="white"/>
</svg>
