<svg width="91" height="91" viewBox="0 0 91 91" fill="none" xmlns="http://www.w3.org/2000/svg">
<circle cx="46.8662" cy="48.5028" r="14.8558" fill="#386FFA"/>
<path d="M11 30.0392L25.0069 41.7117L35.1938 25.7947L28.4026 12L11 30.0392Z" stroke="#386FFA" stroke-width="2" stroke-linecap="round" stroke-linejoin="round"/>
<path d="M22.248 31.7371C18.7816 35.2034 12.0187 44.3858 12.6978 53.3842C13.5467 64.6321 21.8236 66.33 28.1903 59.1143C34.5571 51.8986 26.4925 47.1203 22.248 55.082C18.0035 63.0436 23.5214 71.2112 28.1903 71.8478C32.8593 72.4845 38.5894 68.8767 38.165 63.9955C37.7405 59.1143 32.2226 61.2365 31.3737 68.4522C30.5248 75.6679 37.7405 83.3081 44.744 78.4269" stroke="#2B3B49" stroke-width="2" stroke-linecap="round" stroke-linejoin="round"/>
<path d="M63.5832 36.6398L72.2518 27.4096M57.9689 32.8602L68.8364 17.3607" stroke="#2B3B49" stroke-width="2" stroke-linecap="round" stroke-linejoin="round"/>
<path d="M80.3981 76.5168L58.3265 50.2007L80.3981 58.0531V76.5168Z" stroke="#2B3B49" stroke-width="2" stroke-linecap="round" stroke-linejoin="round"/>
</svg>
