<svg width="91" height="91" viewBox="0 0 91 91" fill="none" xmlns="http://www.w3.org/2000/svg">
<path d="M16.5996 47.748L4.54496 49.3321M19.1022 53.7246L1.8544 58.5293" stroke="#386FFA" stroke-width="2" stroke-linecap="round" stroke-linejoin="round"/>
<path d="M24.5542 40.9639V60L27.4193 61.6453C39.3233 68.4811 53.9011 68.7353 66.0362 62.3187L68.5301 61V40.9639" stroke="#001F5C" stroke-width="2" stroke-linecap="round" stroke-linejoin="round"/>
<path d="M74.6867 38.3253L46.5422 49.3193L14 35.6868L46.5422 23.3735L79.5241 35.6868V49.3193" stroke="#001F5C" stroke-width="2" stroke-linecap="round" stroke-linejoin="round"/>
<path d="M72.7551 52.8655L78.8168 46.8038C79.2073 46.4133 79.8405 46.4133 80.231 46.8038L86.2927 52.8655C86.6832 53.256 86.6832 53.8892 86.2927 54.2797L80.231 60.3414C79.8405 60.7319 79.2073 60.7319 78.8168 60.3414L72.7551 54.2797C72.3646 53.8892 72.3646 53.256 72.7551 52.8655Z" fill="#386FFA"/>
</svg>
