<svg width="91" height="91" viewBox="0 0 91 91" fill="none" xmlns="http://www.w3.org/2000/svg">
<path d="M34.2632 47.1403C34.2632 44.5049 36.3997 42.3684 39.0351 42.3684H52.7544C55.3899 42.3684 57.5263 44.5049 57.5263 47.1403V59.3684C57.5263 65.7924 52.3187 71 45.8948 71V71C39.4708 71 34.2632 65.7924 34.2632 59.3684V47.1403Z" fill="#386FFA"/>
<circle cx="45.8947" cy="31.6315" r="7.15789" fill="#386FFA"/>
<path d="M61.1053 39.1795C61.1053 36.9495 62.9131 35.1417 65.1431 35.1417H76.7518C78.9818 35.1417 80.7896 36.9495 80.7896 39.1795V49.5263C80.7896 54.962 76.3831 59.3684 70.9475 59.3684V59.3684C65.5118 59.3684 61.1053 54.962 61.1053 49.5263V39.1795Z" stroke="#001F5C" stroke-width="2" stroke-linecap="round" stroke-linejoin="round"/>
<circle cx="70.9473" cy="26.0567" r="6.05668" stroke="#001F5C" stroke-width="2" stroke-linecap="round" stroke-linejoin="round"/>
<path d="M11 39.1795C11 36.9495 12.8078 35.1417 15.0378 35.1417H26.6464C28.8764 35.1417 30.6842 36.9495 30.6842 39.1795V49.5263C30.6842 54.962 26.2777 59.3684 20.8421 59.3684V59.3684C15.4065 59.3684 11 54.962 11 49.5263V39.1795Z" stroke="#001F5C" stroke-width="2" stroke-linecap="round" stroke-linejoin="round"/>
<circle cx="20.8421" cy="26.0567" r="6.05668" stroke="#001F5C" stroke-width="2" stroke-linecap="round" stroke-linejoin="round"/>
</svg>
